<svg width="55" height="55" viewBox="0 0 55 55" fill="none" xmlns="http://www.w3.org/2000/svg">
<path d="M6.36582 28.6411C4.61062 30.3963 4.61062 33.2504 6.36582 35.0056L9.54804 38.1878C9.98559 38.6253 10.6966 38.6005 11.2535 38.332C12.5115 37.7204 14.0728 37.9392 15.1169 38.9833C16.1611 40.0275 16.3799 41.5888 15.7683 42.8468C15.4998 43.4037 15.4749 44.1147 15.9125 44.5522L19.0947 47.7345C20.8499 49.4897 23.704 49.4897 25.4591 47.7345L47.7347 25.4589C49.4899 23.7037 49.4899 20.8497 47.7347 19.0945L44.5525 15.9122C44.1149 15.4747 43.4039 15.4995 42.847 15.768C41.589 16.3796 40.0278 16.1608 38.9836 15.1167C37.9394 14.0725 37.7206 12.5112 38.3322 11.2533C38.6007 10.6964 38.6256 9.98535 38.188 9.54779L35.0058 6.36557C33.2506 4.61038 30.3966 4.61038 28.6414 6.36557L6.36582 28.6411ZM15.1169 31.0278L23.0725 38.9834C23.51 39.4209 24.226 39.4209 24.6636 38.9833L38.9836 24.6633C39.4212 24.2258 39.4212 23.5098 38.9836 23.0722L31.028 15.1167C30.5905 14.6791 29.8745 14.6791 29.4369 15.1167L15.1169 29.4367C14.6794 29.8742 14.6794 30.5902 15.1169 31.0278ZM12.7303 31.8233C11.8502 30.9433 11.8502 29.5212 12.7303 28.6411L28.6414 12.73C29.5215 11.8499 30.9435 11.8499 31.8236 12.73L41.3703 22.2767C42.2503 23.1568 42.2503 24.5788 41.3703 25.4589L25.4591 41.37C24.5791 42.2501 23.157 42.2501 22.2769 41.37L12.7303 31.8233Z" fill="#A1887F"/>
</svg>
