<svg width="50" height="50" viewBox="0 0 50 50" fill="none" xmlns="http://www.w3.org/2000/svg">
<rect x="1" y="1" width="48" height="48" rx="24" fill="#FFA726"/>
<rect x="1" y="1" width="48" height="48" rx="24" stroke="#A15C07" stroke-width="2"/>
<path d="M32.566 17.1751C32.8816 17.3939 33.0472 17.772 32.9878 18.1501L30.9878 31.1501C30.941 31.4532 30.7566 31.7189 30.4878 31.8689C30.2191 32.0189 29.8972 32.0376 29.6128 31.9189L25.8753 30.3657L23.7347 32.6814C23.4566 32.9845 23.0191 33.0845 22.6347 32.9345C22.2503 32.7845 22.0003 32.4126 22.0003 32.0001V29.3876C22.0003 29.2626 22.0472 29.1439 22.1316 29.0532L27.3691 23.3376C27.5503 23.1407 27.5441 22.8376 27.3566 22.6501C27.1691 22.4626 26.866 22.4501 26.6691 22.6282L20.3128 28.2751L17.5535 26.8939C17.2222 26.7282 17.0097 26.397 17.0003 26.0282C16.991 25.6595 17.1847 25.3157 17.5035 25.1314L31.5035 17.1314C31.8378 16.9407 32.2503 16.9595 32.566 17.1751V17.1751" fill="white"/>
</svg>
