<svg width="32" height="32" viewBox="0 0 32 32" fill="none" xmlns="http://www.w3.org/2000/svg">
<path d="M15.4374 22.0059C17.1642 22.0964 18.668 21.565 19.9489 20.4117C21.2297 19.2585 21.9154 17.8184 22.0059 16.0916C22.0964 14.3648 21.565 12.861 20.4117 11.5801C19.2584 10.2993 17.8184 9.61357 16.0916 9.52308C14.3648 9.43258 12.8609 9.96398 11.5801 11.1173C10.2992 12.2706 9.61353 13.7106 9.52304 15.4374C9.43254 17.1642 9.96394 18.668 11.1172 19.9489C12.2705 21.2298 13.7106 21.9154 15.4374 22.0059ZM15.1103 28.2474C13.3835 28.1569 11.7779 27.7442 10.2935 27.0092C8.80907 26.2743 7.53458 25.3156 6.46999 24.1333C5.40541 22.951 4.58525 21.5832 4.00949 20.0301C3.43373 18.4771 3.1911 16.8371 3.2816 15.1103C3.3721 13.3835 3.78482 11.7779 4.51977 10.2935C5.25471 8.80911 6.21335 7.53461 7.39569 6.47003C8.57802 5.40545 9.94574 4.58529 11.4988 4.00953C13.0519 3.43377 14.6919 3.19114 16.4187 3.28164C18.1455 3.37214 19.7511 3.78486 21.2355 4.5198C22.7199 5.25475 23.9944 6.21339 25.0589 7.39573C26.1235 8.57806 26.9437 9.94578 27.5195 11.4989C28.0952 13.052 28.3378 14.6919 28.2473 16.4187C28.1568 18.1455 27.7441 19.7511 27.0092 21.2355C26.2742 22.7199 25.3156 23.9944 24.1333 25.059C22.9509 26.1236 21.5832 26.9437 20.0301 27.5195C18.477 28.0952 16.8371 28.3379 15.1103 28.2474ZM15.2411 25.7508C18.029 25.8969 20.441 25.0532 22.4772 23.2198C24.5135 21.3864 25.6047 19.0757 25.7508 16.2879C25.8969 13.5 25.0532 11.088 23.2198 9.05174C21.3863 7.01549 19.0757 5.92432 16.2878 5.77821C13.5 5.63211 11.0879 6.47578 9.0517 8.30922C7.01546 10.1427 5.92428 12.4533 5.77818 15.2412C5.63207 18.029 6.47574 20.441 8.30918 22.4773C10.1426 24.5135 12.4533 25.6047 15.2411 25.7508Z" fill="#B51E1E"/>
</svg>
