<svg width="20" height="20" viewBox="0 0 20 20" fill="none" xmlns="http://www.w3.org/2000/svg">
<path d="M20.0012 9.375C20.0012 13.8633 15.5246 17.5 10.0012 17.5C8.55194 17.5 7.17694 17.25 5.93475 16.8008C5.46991 17.1406 4.7121 17.6055 3.81366 17.9961C2.87616 18.4023 1.74725 18.75 0.626158 18.75C0.372252 18.75 0.14569 18.5977 0.0480334 18.3633C-0.0496228 18.1289 0.00506465 17.8633 0.180846 17.6836L0.192565 17.6719C0.204283 17.6602 0.219908 17.6445 0.243346 17.6172C0.286315 17.5703 0.352721 17.4961 0.434752 17.3945C0.594908 17.1992 0.809752 16.9102 1.0285 16.5508C1.41913 15.9023 1.79022 15.0508 1.86444 14.0938C0.692565 12.7656 0.0011584 11.1367 0.0011584 9.375C0.0011584 4.88672 4.47772 1.25 10.0012 1.25C15.5246 1.25 20.0012 4.88672 20.0012 9.375Z" fill="#4E342E"/>
</svg>
