<svg width="182" height="44" viewBox="0 0 182 44" fill="none" xmlns="http://www.w3.org/2000/svg">
<rect x="1" y="1" width="158" height="42" rx="7" fill="#D4A574" stroke="#432818" stroke-width="2"/>
<path d="M9 34.5C11 35.7 21.1667 35 26 34.5H9Z" stroke="#8B4513"/>
<path d="M37 18C39 19.2 49.1667 18.5 54 18H37Z" stroke="#8B4513"/>
<path d="M115 7C112.412 6.09445 99.2549 6.62269 93 7H115Z" stroke="#8B4513"/>
<path d="M147 29.5C144.412 28.5945 131.255 29.1227 125 29.5H147Z" stroke="#8B4513"/>
<path d="M137 13C138.765 11.1889 147.735 12.2454 152 13H137Z" stroke="#8B4513"/>
<path d="M71 30C72.7647 28.1889 81.7353 29.2454 86 30H71Z" stroke="#8B4513"/>
<path d="M4 8C5.76471 6.1889 14.7353 7.24538 19 8H4Z" stroke="#8B4513"/>
<path d="M181.5 20.5C168.372 32.4659 157.111 43.4947 155 43V42.5V0.578125C161.949 4.17948 169.861 11.1 181.5 20.5Z" fill="#D4A574"/>
<path d="M181.5 20.5C168.372 32.4659 157.111 43.4947 155 43V41.1946L177 20.5L155 2.8125V0.578125C161.949 4.17948 169.861 11.1 181.5 20.5Z" fill="#432813"/>
<g style="mix-blend-mode:darken">
<path d="M158 40L154.454 42H7.05229L4.51961 41.5L3 40H4.01307H157.494" stroke="#8B4513" stroke-width="2"/>
</g>
</svg>
