<svg width="15" height="15" viewBox="0 0 15 15" fill="none" xmlns="http://www.w3.org/2000/svg">
<path d="M7.275 10.9125C8.28137 10.9125 9.13922 10.5578 9.84853 9.84853C10.5578 9.13922 10.9125 8.28137 10.9125 7.275C10.9125 6.26863 10.5578 5.41078 9.84853 4.70147C9.13922 3.99216 8.28137 3.6375 7.275 3.6375C6.26863 3.6375 5.41078 3.99216 4.70147 4.70147C3.99216 5.41078 3.6375 6.26863 3.6375 7.275C3.6375 8.28137 3.99216 9.13922 4.70147 9.84853C5.41078 10.5578 6.26863 10.9125 7.275 10.9125ZM7.275 14.55C6.26863 14.55 5.32288 14.359 4.43775 13.9771C3.55262 13.5952 2.78269 13.0768 2.12794 12.4221C1.47319 11.7673 0.954844 10.9974 0.572906 10.1123C0.190969 9.22713 0 8.28137 0 7.275C0 6.26863 0.190969 5.32288 0.572906 4.43775C0.954844 3.55262 1.47319 2.78269 2.12794 2.12794C2.78269 1.47319 3.55262 0.954844 4.43775 0.572906C5.32288 0.190969 6.26863 0 7.275 0C8.28137 0 9.22713 0.190969 10.1123 0.572906C10.9974 0.954844 11.7673 1.47319 12.4221 2.12794C13.0768 2.78269 13.5952 3.55262 13.9771 4.43775C14.359 5.32288 14.55 6.26863 14.55 7.275C14.55 8.28137 14.359 9.22713 13.9771 10.1123C13.5952 10.9974 13.0768 11.7673 12.4221 12.4221C11.7673 13.0768 10.9974 13.5952 10.1123 13.9771C9.22713 14.359 8.28137 14.55 7.275 14.55ZM7.275 13.095C8.89975 13.095 10.2759 12.5312 11.4036 11.4036C12.5312 10.2759 13.095 8.89975 13.095 7.275C13.095 5.65025 12.5312 4.27406 11.4036 3.14644C10.2759 2.01881 8.89975 1.455 7.275 1.455C5.65025 1.455 4.27406 2.01881 3.14644 3.14644C2.01881 4.27406 1.455 5.65025 1.455 7.275C1.455 8.89975 2.01881 10.2759 3.14644 11.4036C4.27406 12.5312 5.65025 13.095 7.275 13.095Z" fill="#3C3C43" fill-opacity="0.6"/>
</svg>
