<svg width="19" height="19" viewBox="0 0 19 19" fill="none" xmlns="http://www.w3.org/2000/svg">
<g filter="url(#filter0_d_492_3201)">
<path d="M9.45664 13.0961C10.463 13.0961 11.3209 12.7414 12.0302 12.0321C12.7395 11.3228 13.0941 10.465 13.0941 9.45859C13.0941 8.45222 12.7395 7.59437 12.0302 6.88506C11.3209 6.17575 10.463 5.82109 9.45664 5.82109C8.45027 5.82109 7.59242 6.17575 6.88311 6.88506C6.1738 7.59437 5.81914 8.45222 5.81914 9.45859C5.81914 10.465 6.1738 11.3228 6.88311 12.0321C7.59242 12.7414 8.45027 13.0961 9.45664 13.0961ZM9.45664 16.7336C8.45027 16.7336 7.50452 16.5426 6.61939 16.1607C5.73427 15.7787 4.96433 15.2604 4.30958 14.6057C3.65483 13.9509 3.13648 13.181 2.75455 12.2958C2.37261 11.4107 2.18164 10.465 2.18164 9.45859C2.18164 8.45222 2.37261 7.50647 2.75455 6.62134C3.13648 5.73622 3.65483 4.96628 4.30958 4.31153C4.96433 3.65678 5.73427 3.13844 6.61939 2.7565C7.50452 2.37456 8.45027 2.18359 9.45664 2.18359C10.463 2.18359 11.4088 2.37456 12.2939 2.7565C13.179 3.13844 13.949 3.65678 14.6037 4.31153C15.2585 4.96628 15.7768 5.73622 16.1587 6.62134C16.5407 7.50647 16.7316 8.45222 16.7316 9.45859C16.7316 10.465 16.5407 11.4107 16.1587 12.2958C15.7768 13.181 15.2585 13.9509 14.6037 14.6057C13.949 15.2604 13.179 15.7787 12.2939 16.1607C11.4088 16.5426 10.463 16.7336 9.45664 16.7336ZM9.45664 15.2786C11.0814 15.2786 12.4576 14.7148 13.5852 13.5872C14.7128 12.4595 15.2766 11.0833 15.2766 9.45859C15.2766 7.83384 14.7128 6.45766 13.5852 5.33003C12.4576 4.20241 11.0814 3.63859 9.45664 3.63859C7.83189 3.63859 6.4557 4.20241 5.32808 5.33003C4.20045 6.45766 3.63664 7.83384 3.63664 9.45859C3.63664 11.0833 4.20045 12.4595 5.32808 13.5872C6.4557 14.7148 7.83189 15.2786 9.45664 15.2786Z" fill="#FF383C"/>
</g>
<defs>
<filter id="filter0_d_492_3201" x="-1.45594" y="-1.45203" width="21.8259" height="21.8259" filterUnits="userSpaceOnUse" color-interpolation-filters="sRGB">
<feFlood flood-opacity="0" result="BackgroundImageFix"/>
<feColorMatrix in="SourceAlpha" type="matrix" values="0 0 0 0 0 0 0 0 0 0 0 0 0 0 0 0 0 0 127 0" result="hardAlpha"/>
<feOffset/>
<feGaussianBlur stdDeviation="1.09125"/>
<feComposite in2="hardAlpha" operator="out"/>
<feColorMatrix type="matrix" values="0 0 0 0 1 0 0 0 0 0.219608 0 0 0 0 0.235294 0 0 0 1 0"/>
<feBlend mode="normal" in2="BackgroundImageFix" result="effect1_dropShadow_492_3201"/>
<feBlend mode="normal" in="SourceGraphic" in2="effect1_dropShadow_492_3201" result="shape"/>
</filter>
</defs>
</svg>
