<svg width="60" height="60" viewBox="0 0 60 60" fill="none" xmlns="http://www.w3.org/2000/svg">
<path d="M25.8516 14.2031L31.7695 11.25H52.5V22.5H39.0469C36.4805 20.7305 33.3633 19.6875 30 19.6875C26.6367 19.6875 23.5312 20.7305 20.9531 22.5H7.5V15H22.5C23.6602 15 24.8086 14.7305 25.8516 14.2031ZM0 15V48.75C0 52.8867 3.36328 56.25 7.5 56.25H52.5C56.6367 56.25 60 52.8867 60 48.75V11.25C60 7.11328 56.6367 3.75 52.5 3.75H31.7695C30.6094 3.75 29.4609 4.01953 28.418 4.54688L22.5 7.5H18.75V5.625C18.75 4.59375 17.9062 3.75 16.875 3.75H9.375C8.34375 3.75 7.5 4.59375 7.5 5.625V7.5C3.36328 7.5 0 10.8633 0 15ZM19.6875 35.625C19.6875 29.9334 24.3084 25.3125 30 25.3125C35.6916 25.3125 40.3125 29.9334 40.3125 35.625C40.3125 41.3166 35.6916 45.9375 30 45.9375C24.3084 45.9375 19.6875 41.3166 19.6875 35.625Z" fill="#8D6E63"/>
</svg>
